<?xml version="1.0" encoding="UTF-8" standalone="no"?>
<!-- Created with Inkscape (http://www.inkscape.org/) -->

<svg
   xmlns:dc="http://purl.org/dc/elements/1.1/"
   xmlns:cc="http://creativecommons.org/ns#"
   xmlns:rdf="http://www.w3.org/1999/02/22-rdf-syntax-ns#"
   xmlns:svg="http://www.w3.org/2000/svg"
   xmlns="http://www.w3.org/2000/svg"
   xmlns:sodipodi="http://sodipodi.sourceforge.net/DTD/sodipodi-0.dtd"
   xmlns:inkscape="http://www.inkscape.org/namespaces/inkscape"
   width="210mm"
   height="420mm"
   viewBox="0 0 744.09449 1488.1887"
   id="svg2"
   version="1.1"
   inkscape:version="0.91 r13725"
   sodipodi:docname="drawing.svg">
  <defs
     id="defs4" />
  <sodipodi:namedview
     id="base"
     pagecolor="#ffffff"
     bordercolor="#666666"
     borderopacity="1.0"
     inkscape:pageopacity="0.0"
     inkscape:pageshadow="2"
     inkscape:zoom="0.49857893"
     inkscape:cx="544.75325"
     inkscape:cy="748.71432"
     inkscape:document-units="px"
     inkscape:current-layer="layer1"
     showgrid="false"
     inkscape:window-width="1920"
     inkscape:window-height="996"
     inkscape:window-x="0"
     inkscape:window-y="0"
     inkscape:window-maximized="1" />
  <metadata
     id="metadata7">
    <rdf:RDF>
      <cc:Work
         rdf:about="">
        <dc:format>image/svg+xml</dc:format>
        <dc:type
           rdf:resource="http://purl.org/dc/dcmitype/StillImage" />
        <dc:title></dc:title>
      </cc:Work>
    </rdf:RDF>
  </metadata>
  <g
     inkscape:label="Layer 1"
     inkscape:groupmode="layer"
     id="layer1"
     transform="translate(0,435.82676)">
    <rect
       style="fill:#00bec2;fill-opacity:0.71764706"
       id="rect3336"
       width="744.57831"
       height="95.022377"
       x="1.4182444"
       y="-422.34717"
       ry="3.9453102e-05" />
    <text
       xml:space="preserve"
       style="font-style:normal;font-weight:normal;font-size:40px;line-height:125%;font-family:sans-serif;letter-spacing:0px;word-spacing:0px;fill:#000000;fill-opacity:1;stroke:none;stroke-width:1px;stroke-linecap:butt;stroke-linejoin:miter;stroke-opacity:1"
       x="29.783133"
       y="-358.52615"
       id="text3338"
       sodipodi:linespacing="125%"><tspan
         sodipodi:role="line"
         id="tspan3340"
         x="29.783133"
         y="-358.52615"
         style="font-size:18.75px">vertical loop logo</tspan></text>
    <text
       xml:space="preserve"
       style="font-style:normal;font-weight:normal;font-size:40px;line-height:125%;font-family:sans-serif;letter-spacing:0px;word-spacing:0px;fill:#000000;fill-opacity:1;stroke:none;stroke-width:1px;stroke-linecap:butt;stroke-linejoin:miter;stroke-opacity:1"
       x="499.22202"
       y="-361.36267"
       id="text3342"
       sodipodi:linespacing="125%"><tspan
         sodipodi:role="line"
         id="tspan3344"
         x="499.22202"
         y="-361.36267"
         style="font-size:17.5px">main site | contact</tspan></text>
    <ellipse
       style="fill:#00ffff;fill-opacity:0.25490196"
       id="path3374"
       cx="158.84338"
       cy="-5.7457876"
       rx="75.166962"
       ry="73.748703"
       transform="scale(1,-1)" />
    <ellipse
       style="fill:#00ffff;fill-opacity:0.25490196"
       id="path3374-3"
       cx="372.99829"
       cy="-7.164031"
       rx="75.166962"
       ry="73.748703"
       transform="scale(1,-1)" />
    <ellipse
       style="fill:#00ffff;fill-opacity:0.25490196"
       id="path3374-6"
       cx="572.9707"
       cy="-7.164031"
       rx="75.166962"
       ry="73.748703"
       transform="scale(1,-1)" />
    <path
       style="fill:none;fill-rule:evenodd;stroke:#000000;stroke-width:1px;stroke-linecap:butt;stroke-linejoin:miter;stroke-opacity:1"
       d="m -43.965577,105.0229 c 7.563971,0 15.127941,0 22.691911,0 2.363741,0 4.727481,0 7.091222,0 1.418244,0 2.845163,-0.15662 4.2547332,0 2.8580266,0.31755 5.6423219,1.19769 8.5094664,1.41824 5.6562678,0.4351 11.3459552,0 17.0189324,0 8.036719,0 16.073437,0 24.110155,0 4.727482,0 9.454963,0 14.182444,0 1.890993,0 3.807715,0.31088 5.672978,0 1.47462,-0.24577 2.817293,-1.00755 4.254733,-1.41824 1.874194,-0.53549 3.750308,-1.0978 5.672978,-1.41825 3.263049,-0.54384 8.198201,0.62955 11.345955,0 1.036569,-0.20731 1.793775,-1.24446 2.836489,-1.41824 1.865264,-0.31088 3.80099,0.26742 5.672978,0 1.479935,-0.21142 2.780112,-1.17248 4.254733,-1.41825 1.398947,-0.23316 2.878834,0.34398 4.254733,0 0.648605,-0.16215 0.82026,-1.119249 1.418244,-1.418239 0.422839,-0.21142 0.969752,0.14949 1.418242,0 6.58428,-3.29214 -0.816329,-0.12038 5.67298,-1.41825 1.64742,-0.32948 5.47037,-1.75592 7.09122,-2.83649 0.55628,-0.37085 0.82026,-1.11925 1.41825,-1.41824 0.42284,-0.21142 0.94549,0 1.41824,0 1.41825,0 2.87884,0.34398 4.25473,0 0.64861,-0.16215 0.86197,-1.04739 1.41825,-1.41824 0.87956,-0.58638 2.08901,-0.67077 2.83649,-1.41825 0.33428,-0.33428 -0.42284,-1.20682 0,-1.41824 0.84568,-0.42284 1.91922,0.22931 2.83649,0 3.31358,-0.8284 3.65165,-3.10821 7.09122,-4.25474 2.12737,-0.70912 1.41824,1.41825 4.25473,0 0.42284,-0.21142 -0.33428,-1.08396 0,-1.41824 0.33429,-0.33428 0.96976,0.1495 1.41825,0 1.00285,-0.33428 1.83363,-1.08396 2.83649,-1.41824 1.67766,-0.55923 1.15881,0.55922 2.83648,0 1.00285,-0.33429 1.83364,-1.08397 2.83649,-1.41825 0.89698,-0.29899 1.891,0 2.83649,0 2.36374,0 4.72748,0 7.09122,0 0.93168,0 5.33948,0.16675 5.67298,0 0.42284,-0.21142 -0.21142,-0.9954 0,-1.41824 0.29899,-0.59799 0.82026,-1.11926 1.41825,-1.41825 0.89139,-0.4457 4.78157,0.4457 5.67297,0 0.59799,-0.29899 0.78399,-1.20682 1.41825,-1.41824 0.89697,-0.29899 1.99081,0.42284 2.83649,0 1.19597,-0.59799 1.72392,-2.09478 2.83649,-2.83649 0.39335,-0.26223 0.9954,0.21142 1.41824,0 0.59798,-0.29899 0.9455,-0.9455 1.41824,-1.41825 0.47275,-0.47274 1.11926,-0.82026 1.41825,-1.41824 1.2553,-2.5106 -2.10955,-0.48463 1.41824,-2.83649 0.9455,-0.47275 1.891,-0.9455 2.83649,-1.41824 0,-0.47275 -0.33428,-1.08396 0,-1.41825 1.49496,-1.49496 4.50024,-1.07737 5.67298,-2.83649 0,-3.50505 -0.66857,-2.16792 1.41824,-4.25473 0.9455,-0.9455 1.72393,-2.09478 2.83649,-2.83649 0.39335,-0.26223 1.20683,0.42284 1.41825,0 0.42284,-0.84568 -0.42284,-1.99081 0,-2.83649 0.21142,-0.42284 0.94549,0 1.41824,0 0.47275,0 1.08396,-0.33428 1.41825,0 0.33428,0.33429 -0.42284,1.20683 0,1.41825 0.84567,0.42284 1.89099,0 2.83648,0 2.70643,0 0.2077,0.33428 2.83649,-1.41825 0.87956,-0.58637 1.891,-0.94549 2.83649,-1.41824 0.9455,-0.47275 1.83364,-1.08396 2.83649,-1.41825 2.12737,-0.70912 1.41825,1.41825 4.25473,0 0.84568,-0.42283 -0.66856,-2.16792 0,-2.83648 0.74748,-0.74749 1.95694,-0.83188 2.83649,-1.41825 0.55628,-0.37085 0.9455,-0.9455 1.41825,-1.41824 6.84873,-6.84874 -1.48342,1.85427 5.67297,-7.09123 0.83531,-1.04412 2.14854,-1.6899 2.83649,-2.83648 0.76915,-1.28192 0.52127,-3.05877 1.41825,-4.25474 0.63426,-0.84568 2.20223,-0.57256 2.83649,-1.41824 0.89697,-1.19597 0.86303,-2.8667 1.41824,-4.25474 0.3926,-0.98149 1.21093,-1.79992 1.41825,-2.83648 0.27814,-1.39071 -0.34398,-2.87884 0,-4.25474 0.16215,-0.6486 1.04739,-0.86196 1.41824,-1.41824 0.58637,-0.87956 1.16186,-1.81096 1.41824,-2.83649 0.22932,-0.91727 0,-1.89099 0,-2.83649 0,-2.3637398 0,-4.7274798 0,-7.0912198 0,-1.6767 0.27761,-10.23555 0,-11.34596 -0.16215,-0.6486 -1.04739,-0.86196 -1.41824,-1.41824 -0.58637,-0.8795602 -0.83187,-1.9569302 -1.41824,-2.8364902 -0.37086,-0.55628 -1.2561,-0.76964 -1.41825,-1.41824 -0.34397,-1.3759 0.34398,-2.87884 0,-4.25474 -0.16215,-0.6486 -1.04739,-0.86196 -1.41824,-1.41824 -0.58637,-0.87956 -1.02565,-1.855 -1.41825,-2.83649 -3.77463,-9.43658 1.48313,1.05364 -4.25473,-8.50947 -0.54387,-0.90645 -0.75788,-2.01103 -1.41825,-2.83649 -1.25295,-1.56618 -3.00178,-2.68854 -4.25473,-4.25473 -0.66036,-0.82545 -0.67076,-2.08901 -1.41824,-2.83649 -0.74748,-0.74748 -2.08901,-0.67076 -2.83649,-1.41824 -0.74748,-0.74748 -0.83187,-1.95693 -1.41825,-2.83649 -0.37085,-0.55628 -1.04739,-0.86196 -1.41824,-1.41825 -0.58637,-0.87955 -0.78399,-1.99081 -1.41824,-2.83648 -0.38975,-0.51967 -6.48595,-6.78859 -7.09123,-7.09123 -0.84567,-0.42284 -2.04979,0.52447 -2.83649,0 -1.11256,-0.7417 -1.76678,-2.03421 -2.83648,-2.83649 -0.84568,-0.63425 -1.95694,-0.83187 -2.83649,-1.41824 -0.55628,-0.37085 -0.78399,-1.20682 -1.41825,-1.41824 -0.89697,-0.299 -1.93951,0.29899 -2.83649,0 -0.63425,-0.21142 -0.94549,-0.9455 -1.41824,-1.41825 -1.41825,-0.47275 -2.7888,-1.125062 -4.25473,-1.418242 -0.92714,-0.18543 -1.891,0 -2.83649,0 -2.83649,0 -5.67298,0 -8.50947,0 -0.9455,0 -1.93951,0.29899 -2.83649,0 -0.63426,-0.21142 -0.76964,-1.2561 -1.41824,-1.41825 -10.05922,0 -0.83079,1.00285 -5.67298,-1.41824 -0.42284,-0.21142 -0.9455,0 -1.41824,0 -0.47275,0 -0.9455,0 -1.41825,0 -1.41824,0 -2.83649,0 -4.25473,0 -3.78199,0 -7.56397,0 -11.34596,0 -0.94549,0 -1.89099,0 -2.83649,0 -0.47274,0 -0.96975,-0.1495 -1.41824,0 -1.00285,0.33428 -1.81095,1.16186 -2.83649,1.41824 -2.29316,0.57329 -4.79806,-0.57329 -7.09122,0 -0.64861,0.16215 -0.82026,1.11925 -1.41825,1.41825 -0.42283,0.21142 -0.94549,0 -1.41824,0 -0.96194,0 -8.7242,-0.30088 -9.92771,0 -1.02554,0.25638 -1.81096,1.161862 -2.83649,1.418242 -0.91727,0.22932 -2.04979,-0.52447 -2.83649,0 -0.87956,0.58637 -0.67076,2.08901 -1.41824,2.83649 -0.31092,0.31091 -3.767,-0.32516 -4.25474,0 -0.41495,0.27664 -5.02667,4.70351 -5.67297,5.67298 -0.58638,0.87956 -0.67077,2.08901 -1.41825,2.83649 -0.33428,0.33428 -1.02489,-0.26224 -1.41824,0 -3.680594,2.45372 -2.162121,2.53405 -4.254736,5.67297 -0.370854,0.55629 -1.206825,0.78399 -1.418244,1.41825 -0.298993,0.89698 0.298992,1.93951 0,2.83649 -0.21142,0.63426 -1.047391,0.86196 -1.418245,1.41824 -0.586372,0.87956 -0.670764,2.08901 -1.418244,2.83649 -0.747481,0.74748 -2.250117,0.53869 -2.836489,1.41825 -0.524467,0.7867 0.524467,2.04978 0,2.83648 -0.586372,0.87956 -2.250117,0.53869 -2.836489,1.41825 -0.524467,0.7867 0.298992,1.93951 0,2.83649 -0.211419,0.63426 -1.119252,0.82026 -1.418244,1.41824 -0.21142,0.42284 0.149496,0.96976 0,1.41825 -0.334284,1.00285 -1.083961,1.83363 -1.418245,2.83648 -0.149496,0.44849 0,0.9455 0,1.41825 0,0.9455 0,1.89099 0,2.83649 0,2.83649 0,5.67298 0,8.50946 0,3.3092402 0,6.6184802 0,9.9277202 0,1.89098998 -0.370854,3.8187 0,5.67297 0.207314,1.03657 1.083961,1.83364 1.418245,2.83649 0.149496,0.44849 -0.21142,0.99541 0,1.41825 0.298992,0.59798 1.256093,0.76964 1.418244,1.4182398 0.343975,1.3759 -0.343975,2.87883 0,4.25473 0.162151,0.64861 1.119252,0.82026 1.418245,1.41825 0.668566,1.33713 0.749677,2.9176 1.418244,4.25473 0.298992,0.59799 1.206825,0.78399 1.418244,1.41825 0.298993,0.89697 -0.298992,1.93951 0,2.83648 0.726193,2.17858 3.096361,1.09893 4.254734,2.83649 0.524467,0.7867 -0.524467,2.04979 0,2.83649 0.586372,0.87956 2.089008,0.67077 2.836488,1.41825 0.747482,0.74748 0.945492,1.89099 1.418242,2.83649 0.47275,0.94549 1.08396,1.83363 1.41825,2.83648 0.14949,0.44849 -0.33429,1.08397 0,1.41825 0.74748,0.74748 2.20223,0.57257 2.83649,1.41824 0.89697,1.19597 0.64909,2.97282 1.41824,4.25474 0.68795,1.14658 2.2385,1.64052 2.83649,2.83649 0.42284,0.84567 -0.52447,2.04978 0,2.83648 5.04265,7.56397 1.10308,-5.20023 4.25473,4.25474 0.47275,1.41824 -0.94549,2.83649 0,4.25473 0.58637,0.87956 1.99081,0.78399 2.83649,1.41824 1.06971,0.80228 2.03421,1.76679 2.83649,2.83649 1.26852,1.69136 1.66375,3.91387 2.83649,5.67298 0.37085,0.55628 1.0171,0.88339 1.41824,1.41825 1.02271,1.36361 1.63122,3.04945 2.83649,4.25473 0.74748,0.74748 1.89099,0.9455 2.83649,1.41824 4.04104,2.02052 9.20255,4.41999 12.7642,7.09123 1.60456,1.20342 2.71391,2.97071 4.25473,4.25473 2.6189,2.18241 5.78224,3.62755 8.50947,5.67298 0.53485,0.40114 0.82026,1.11925 1.41824,1.41824 10.42403,3.47467 0.7223,-0.46397 5.67298,2.83649 0.87956,0.58637 2.08901,0.67076 2.83649,1.41824 0.74748,0.74748 0.67077,2.089009 1.41825,2.836489 0.33428,0.33429 0.96975,-0.14949 1.41824,0 2.0057,0.66857 3.78199,1.891 5.67298,2.83649 8.60659,4.3033 -4.88879,-2.59099 7.09122,4.25473 2.95488,1.68851 9.72496,4.80463 12.7642,5.67298 0.90912,0.25975 1.93951,-0.29899 2.83649,0 0.63426,0.21142 0.78398,1.20683 1.41824,1.41825 0.89698,0.29899 1.93951,-0.299 2.83649,0 0.63426,0.21142 0.75878,1.30833 1.41825,1.41824 2.33158,0.3886 4.75123,-0.33428 7.09122,0 4.31471,0.61639 8.50242,1.92325 12.7642,2.83649 2.35704,0.50508 4.75264,0.8336 7.09122,1.41824 3.3389,0.83473 6.53288,2.27069 9.92771,2.83649 2.33158,0.3886 4.72748,0 7.09122,0 0.9455,0 1.90936,-0.18542 2.83649,0 1.46593,0.29319 2.78011,1.17248 4.25473,1.41825 1.39895,0.23316 2.83649,0 4.25474,0 3.78198,0 7.56397,0 11.34595,0 9.92771,0 19.85542,0 29.78314,0 6.14572,0 12.29145,0 18.43717,0 2.36374,0 4.77339,0.46357 7.09122,0 1.03657,-0.20732 1.79992,-1.21093 2.83649,-1.41825 1.39071,-0.27814 2.83649,0 4.25474,0 2.83649,0 5.67297,0 8.50946,0 1.41825,0 2.87884,0.34398 4.25474,0 0.6486,-0.16215 0.82026,-1.11925 1.41824,-1.41824 0.42284,-0.21142 0.9455,0 1.41825,0 0.94549,-0.47275 1.95693,-0.83187 2.83648,-1.41825 2.59502,-1.73 0.1415,-1.80817 4.25474,-2.83648 0.91726,-0.22932 1.93951,0.29899 2.83649,0 0.63425,-0.21142 0.78398,-1.20683 1.41824,-1.41825 6.45625,0 0.0811,0.66857 4.25473,-1.41824 1.33714,-0.66857 3.19764,-0.36115 4.25474,-1.41825 0.66856,-0.66856 -0.42284,-1.99081 0,-2.83649 0.21142,-0.42284 0.96975,0.1495 1.41824,0 1.00285,-0.33428 1.95693,-0.83187 2.83649,-1.41824 0.55628,-0.37086 0.78399,-1.20683 1.41824,-1.41825 0.83135,-0.27711 5.22448,0.29901 5.67298,0 1.73756,-1.15837 0.65791,-3.52854 2.83649,-4.25473 0.89698,-0.29899 1.91922,0.22932 2.83649,0 2.05107,-0.51277 3.66728,-2.16792 5.67298,-2.83649 0.44849,-0.14949 1.08396,0.33429 1.41824,0 0.33429,-0.33428 -0.42284,-1.206819 0,-1.418239 0.84568,-0.42284 1.99081,0.42284 2.83649,0 0.42284,-0.21142 -0.33428,-1.08396 0,-1.41825 0.74748,-0.74748 1.83364,-1.08396 2.83649,-1.41824 0.44849,-0.1495 1.08396,0.33428 1.41824,0 0.74748,-0.74748 0.67077,-2.08901 1.41825,-2.83649 0.33428,-0.33428 0.9954,0.21142 1.41824,0 1.52457,-0.76228 2.79312,-1.95952 4.25474,-2.83649 0.90645,-0.54387 2.089,-0.67076 2.83648,-1.41824 0.74749,-0.74748 0.67077,-2.08901 1.41825,-2.83649 0.74748,-0.74748 2.08901,-0.67077 2.83649,-1.41825 0.74748,-0.74748 0.57256,-2.20223 1.41824,-2.83648 1.19597,-0.89698 3.35776,-0.22228 4.25474,-1.41825 0.85094,-1.13459 -0.63426,-2.98622 0,-4.25473 0.47274,-0.9455 2.089,-0.67077 2.83648,-1.41825 2.61372,-2.61371 2.57602,-4.29336 4.25474,-7.09122 0.87696,-1.46161 1.95952,-2.79312 2.83649,-4.25473 0.54387,-0.90646 0.67076,-2.08901 1.41824,-2.83649 0.33428,-0.33428 1.08396,0.33428 1.41825,0 3.58234,-3.58235 0.54497,-1.63493 1.41824,-4.25473 0.33428,-1.00285 0.78399,-1.99082 1.41824,-2.83649 0.80228,-1.06971 2.09478,-1.72393 2.83649,-2.83649 0.26224,-0.39335 -0.33428,-1.08396 0,-1.41825 0.33429,-0.33428 1.08396,0.33429 1.41825,0 1.49496,-1.49496 1.34153,-4.17801 2.83649,-5.67297 0.33428,-0.33429 1.20682,0.42284 1.41824,0 0.42284,-0.84568 -0.29899,-1.93952 0,-2.83649 0.21142,-0.63426 1.04739,-0.86197 1.41824,-1.41825 0.58638,-0.87955 0.9455,-1.89099 1.41825,-2.83649 0.47275,-0.94549 1.16186,-1.81095 1.41824,-2.83648 0.45864,-1.83454 -0.84567,-3.98163 0,-5.67298 0.21142,-0.42284 1.08396,0.33428 1.41825,0 0.33428,-0.33429 0,-0.9455 0,-1.41825 0,-0.94549 0,-1.89099 0,-2.83649 0,-8.03671 0,-16.0734298 0,-24.11014982 0,-4.25472998 0,-8.50946998 0,-12.76420018 0,-1.22903 0.27385,-4.85142 0,-5.67298 -0.33429,-1.00285 -0.9455,-1.89099 -1.41825,-2.83649 -0.47274,-0.94549 -0.83187,-1.95693 -1.41824,-2.83649 -0.37086,-0.55628 -1.04739,-0.86196 -1.41825,-1.41824 -0.58637,-0.87956 -0.83187,-1.95693 -1.41824,-2.83649 -1.11256,-1.66884 -3.14217,-2.58589 -4.25473,-4.25473 -0.26224,-0.39335 0.21142,-0.99541 0,-1.41825 -1.08608,-2.17215 -2.52734,-1.10909 -4.25474,-2.83648 -0.74748,-0.74749 -0.94549,-1.891 -1.41824,-2.83649 -0.9455,-0.47275 -1.99081,-0.78399 -2.83649,-1.41825 -1.76546,-1.3241 -5.47302,-5.47302 -7.09122,-7.09122 -0.47275,-0.47275 -0.86196,-1.04739 -1.41825,-1.41824 -0.87955,-0.58638 -2.089,-0.67077 -2.83648,-1.41825 -0.74749,-0.74748 -0.53869,-2.25012 -1.41825,-2.83649 -0.7867,-0.52446 -1.93951,0.29899 -2.83649,0 -0.63426,-0.21142 -0.82026,-1.11925 -1.41824,-1.41824 -0.42284,-0.21142 -1.0249,0.26223 -1.41825,0 -1.11256,-0.74171 -1.64052,-2.23851 -2.83649,-2.83649 -0.84567,-0.42284 -1.93951,0.29899 -2.83648,0 -0.63426,-0.21142 -0.9455,-0.9455 -1.41825,-1.41825 -0.94549,-0.47274 -1.81095,-1.16186 -2.83649,-1.41824 -1.83453,-0.45863 -3.83844,0.45863 -5.67298,0 -1.02553,-0.25638 -1.79992,-1.21093 -2.83648,-1.41824 -1.6583,-0.33166 -6.32197,0 -8.50947,0 -6.14573,0 -12.29145,0 -18.43718,0 -3.78198,0 -7.56397,0 -11.34595,0 -1.891,0 -3.81871,-0.37086 -5.67298,0 -1.46593,0.29318 -2.7888,1.12505 -4.25473,1.41824 -0.92714,0.18543 -1.91923,-0.22932 -2.83649,0 -1.02554,0.25638 -1.79992,1.21093 -2.83649,1.41824 -1.3907,0.27815 -2.93793,-0.52672 -4.25473,0 -1.2415,0.4966 -1.76679,2.03421 -2.83649,2.83649 -2.47845,1.85884 -4.23098,1.40637 -7.09123,2.83649 -0.66483,0.33242 -4.67572,2.75885 -5.67297,4.25474 -0.58637,0.87955 -0.57257,2.20223 -1.41825,2.83648 -1.19597,0.89698 -3.19763,0.36115 -4.25473,1.41825 -1.0571,1.0571 -0.64909,2.97281 -1.41825,4.25473 -0.68794,1.14658 -2.09478,1.72393 -2.83648,2.83649 -0.26224,0.39335 0.11465,0.95961 0,1.41825 -0.36259,1.45032 -0.86303,2.86669 -1.41825,4.25473 -0.39259,0.98149 -1.21093,1.79992 -1.41824,2.83649 -0.27814,1.3907 0,2.83649 0,4.25473 0,3.30924 0,6.61847 0,9.92771 0,5.20023 0,10.4004602 0,15.60069018 0,1.89099002 -0.31088,3.80771002 0,5.67298002 0.17378,1.04271 1.08396,1.83364 1.41824,2.83649 0.61639,1.8491598 0.88276,3.7987798 1.41825,5.6729698 0.41069,1.43744 1.05566,2.80441 1.41824,4.25474 0.58465,2.33858 0.65596,4.80437 1.41824,7.09122 1.84677,5.5403 3.85639,6.4937 7.09123,11.34595 1.17274,1.75912 1.66374,3.91387 2.83649,5.67298 0.37085,0.55628 1.04739,0.86197 1.41824,1.41825 1.17274,1.75911 1.66375,3.91386 2.83649,5.67297 0.37085,0.55629 1.11925,0.82026 1.41824,1.41825 0.66857,1.33713 0.52127,3.05876 1.41825,4.25473 0.63426,0.84568 2.08901,0.67077 2.83649,1.41825 1.20527,1.20527 1.81377,2.89112 2.83649,4.25473 1.20342,1.60456 3.05131,2.65017 4.25473,4.25473 0.63426,0.84568 0.67076,2.08901 1.41824,2.83649 0.74748,0.74748 2.08901,0.67077 2.83649,1.41825 0.74748,0.74748 0.83187,1.95693 1.41825,2.83648 1.10901,1.66352 4.72321,3.49493 5.67297,4.25474 1.04413,0.8353 1.891,1.89099 2.83649,2.83649 0.9455,0.94549 2.03421,1.76678 2.83649,2.83649 0.43471,0.57961 2.60112,5.51606 2.83649,5.67297 0.7867,0.52447 2.04979,-0.52446 2.83649,0 0.87956,0.58637 0.83187,1.95693 1.41824,2.83649 0.37086,0.55628 0.9455,0.9455 1.41825,1.41825 0.47275,0.47274 0.82026,1.11925 1.41824,1.41824 1.33714,0.66857 2.9176,0.74968 4.25474,1.41824 5.09514,2.54758 -5.07407,1.04532 5.67297,2.83649 1.39895,0.23316 2.85579,-0.23315 4.25474,0 1.47462,0.24577 2.83649,0.9455 4.25473,1.41825 1.41824,0.47275 2.83649,0.945489 4.25473,1.418239 1.41825,0.47275 2.83649,0.9455 4.25474,1.41825 1.41824,0.47275 2.9176,0.74967 4.25473,1.41824 0.59798,0.29899 0.78399,1.20683 1.41824,1.41825 0.64922,0.2164 6.29962,0 7.09123,0 6.63516,0 1.9759,-0.44849 8.50946,1.41824 1.8742,0.53548 3.92957,0.54654 5.67298,1.41824 1.19597,0.59799 1.64052,2.23851 2.83649,2.83649 0.84568,0.42284 1.93951,-0.29899 2.83649,0 0.63426,0.21142 0.82026,1.11926 1.41824,1.41825 0.42284,0.21142 1.08396,-0.33429 1.41825,0 0.33428,0.33428 -0.33429,1.08396 0,1.41824 0.33428,0.33429 0.96975,-0.14949 1.41824,0 2.41518,0.80506 4.65276,2.10495 7.09122,2.83649 2.30889,0.69267 4.80437,0.65596 7.09122,1.41825 2.00571,0.66856 3.60913,2.37785 5.67298,2.83648 2.30746,0.51277 4.75964,-0.38859 7.09122,0 0.65947,0.10992 0.76964,1.2561 1.41825,1.41825 1.3759,0.34397 2.83649,0 4.25473,0 2.83649,0 5.67298,0 8.50947,0 10.40046,0 20.80092,0 31.20138,0 4.25473,0 8.50946,0 12.7642,0 2.36374,0 4.75964,0.3886 7.09122,0 1.47462,-0.24577 2.78011,-1.17248 4.25473,-1.41825 1.39895,-0.23315 2.83649,0 4.25473,0 1.41825,0 2.83649,0 4.25474,0 1.41824,0 2.93792,0.52673 4.25473,0 1.2415,-0.49659 1.76678,-2.0342 2.83649,-2.83648 0.84568,-0.63426 1.89099,-0.9455 2.83649,-1.41825 0.94549,-0.47275 1.81095,-1.16186 2.83649,-1.41824 0.91726,-0.22932 1.91922,0.22931 2.83649,0 1.02553,-0.25639 1.79992,-1.21093 2.83648,-1.41825 1.39071,-0.27814 2.86403,0.27814 4.25474,0 4.72229,-0.94446 1.21642,-2.02646 5.67297,-4.25473 0.84568,-0.42284 1.90936,0.18543 2.83649,0 2.35064,-0.47013 7.7872,-2.82772 9.92771,-4.25473 0.55629,-0.37086 0.9455,-0.9455 1.41825,-1.41825 1.41824,-1.41824 2.65017,-3.05131 4.25473,-4.254729 0.3782,-0.28365 0.96976,0.14949 1.41825,0 1.00285,-0.33429 1.89099,-0.9455 2.83649,-1.41825 0.94549,-0.47274 1.95693,-0.83187 2.83648,-1.41824 0.55629,-0.37085 0.86197,-1.04739 1.41825,-1.41825 0.87956,-0.58637 2.08901,-0.67076 2.83649,-1.41824 1.20527,-1.20528 1.63121,-3.04946 2.83649,-4.25473 1.20527,-1.20528 2.89112,-1.81378 4.25473,-2.83649 0.53485,-0.40114 0.86196,-1.04739 1.41824,-1.41825 0.87956,-0.58637 1.95693,-0.83187 2.83649,-1.41824 1.80552,-1.20368 3.92543,-4.36231 5.67298,-5.67298 0.84568,-0.63426 1.95693,-0.83187 2.83649,-1.41824 0.55628,-0.37086 0.9455,-0.9455 1.41824,-1.41825 1.891,-1.89099 3.78199,-3.78198 5.67298,-5.67297 0.9455,-0.9455 1.72393,-2.09478 2.83649,-2.83649 0.39335,-0.26224 1.08396,0.33428 1.41824,0 0.74748,-0.74748 0.83188,-1.95693 1.41825,-2.83649 0.37085,-0.55628 0.94549,-0.9455 1.41824,-1.41825 0.9455,-0.94549 1.891,-1.89099 2.83649,-2.83649 0.9455,-0.94549 2.03421,-1.76678 2.83649,-2.83648 0.63426,-0.84568 0.67076,-2.08901 1.41825,-2.83649 0.33428,-0.33429 1.02489,0.26223 1.41824,0 0.0353,-0.0236 5.36847,-5.06396 5.67298,-5.67298 0.21142,-0.42284 -0.33429,-1.08396 0,-1.41824 0.74748,-0.74749 2.08901,-0.67077 2.83649,-1.41825 0.74748,-0.74748 0.83187,-1.95693 1.41824,-2.83649 0.37085,-0.55628 1.20683,-0.78398 1.41824,-1.41824 0.299,-0.89698 -0.29899,-1.93951 0,-2.83649 0.21142,-0.63426 1.11926,-0.82026 1.41825,-1.41825 0.66857,-1.33713 0.74968,-2.9176 1.41824,-4.25473 0.299,-0.59798 1.20683,-0.78399 1.41825,-1.41824 0.29899,-0.89698 0,-1.891 0,-2.83649 0,-1.66684 -0.32049,-7.22752 0,-8.50947 0.36258,-1.45032 1.12506,-2.7888 1.41824,-4.25473 0.18543,-0.92714 0,-1.89099 0,-2.83649 0,-2.83649 0,-5.6729798 0,-8.5094698 0,-0.91265 0.23995,-8.96792 0,-9.92771 -0.25638,-1.02553 -1.02565,-1.855 -1.41824,-2.83649 -0.55522,-1.38803 -0.74968,-2.9176002 -1.41825,-4.2547302 -0.29899,-0.59798 -1.04739,-0.86196 -1.41824,-1.41824 -0.58637,-0.87956 -1.08396,-1.83364 -1.41825,-2.83649 -0.14949,-0.44849 0.33429,-1.08396 0,-1.41825 -0.33428,-0.33428 -1.08396,0.33429 -1.41824,0 -0.74748,-0.74748 -0.78399,-1.99081 -1.41824,-2.83649 -0.80228,-1.0697 -2.09478,-1.72392 -2.83649,-2.83649 -0.26224,-0.39335 0.26223,-1.02489 0,-1.41824 -0.32471,-0.48706 -6.31597,-6.57439 -7.09122,-7.09122 -0.87956,-0.58637 -2.08901,-0.67077 -2.83649,-1.41825 -0.66857,-0.66856 0.42284,-1.99081 0,-2.83648 -1.08608,-2.17216 -2.52734,-1.1091 -4.25474,-2.83649 -0.74748,-0.74748 -0.53868,-2.25012 -1.41824,-2.83649 -0.7867,-0.52447 -1.93951,0.29899 -2.83649,0 -2.17858,-0.7262 -1.09893,-3.09636 -2.83649,-4.25474 -0.7867,-0.52446 -1.93951,0.299 -2.83649,0 -0.63426,-0.21142 -0.82026,-1.11925 -1.41824,-1.41824 -0.42284,-0.21142 -0.96976,0.1495 -1.41825,0 -1.00285,-0.33428 -1.83364,-1.08396 -2.83649,-1.41824 -0.44848,-0.1495 -1.02489,0.26223 -1.41824,0 -6.45625,-6.45626 0.58746,-0.74968 -5.67298,-2.83649 -0.63426,-0.21142 -0.76964,-1.2561 -1.41824,-1.41825 -1.3759,-0.34397 -2.93793,0.52673 -4.25473,0 -1.2415,-0.4966 -1.64053,-2.2385 -2.83649,-2.83649 -0.84568,-0.42284 -1.90936,0.18543 -2.83649,0 -1.46593,-0.29318 -2.78012,-1.17247 -4.25474,-1.41824 -1.39894,-0.23316 -2.86403,0.27814 -4.25473,0 -8.14832,-1.62966 0.40703,-1.41825 -4.25473,-1.41825 -0.34396,0 -4.20912,0.0456 -4.25474,0 -0.33428,-0.33428 0.42284,-1.20682 0,-1.41824 -1.26851,-0.63426 -2.83648,0 -4.25473,0 -3.30924,0 -6.61847,0 -9.92771,0 -1.33147,0 -6.27858,-0.27088 -7.09122,0 -0.63426,0.21142 -0.78399,1.20683 -1.41825,1.41824 -0.89697,0.299 -1.93951,-0.29899 -2.83648,0 -0.63426,0.21142 -0.86197,1.04739 -1.41825,1.41825 -0.87956,0.58637 -1.95693,0.83187 -2.83649,1.41824 -0.55628,0.37086 -0.86196,1.04739 -1.41824,1.41825 -0.87956,0.58637 -1.81096,1.16186 -2.83649,1.41824 -4.19367,1.04842 -1.65532,-1.595 -5.67298,1.41825 -1.06971,0.80228 -1.72393,2.09478 -2.83649,2.83649 -0.39335,0.26223 -0.94549,0 -1.41824,0 -0.9455,0.94549 -2.09478,1.72392 -2.83649,2.83648 -0.26223,0.39335 0,0.9455 0,1.41825 -0.9455,0.94549 -1.76678,2.03421 -2.83649,2.83649 -0.84568,0.63426 -2.20223,0.57256 -2.83649,1.41824 -0.89698,1.19597 -0.86303,2.8667 -1.41824,4.25474 -0.3926,0.98149 -0.83188,1.95693 -1.41825,2.83648 -0.37085,0.55629 -1.0171,0.88339 -1.41824,1.41825 -1.02271,1.36361 -1.81378,2.89112 -2.83649,4.25473 -1.06368,1.41825 -3.54561,2.83649 -4.25473,4.25473 -0.42284,0.84568 0.22931,1.91923 0,2.83649 -0.25639,1.02554 -1.16186,1.81096 -1.41825,2.83649 -0.57329,2.29317 0.46357,4.77339 0,7.09122 -0.20731,1.03657 -1.21093,1.7999202 -1.41824,2.8364902 -0.27814,1.39071 0,2.83649 0,4.25474 0,1.41824 0,2.83649 0,4.25472998 0,4.25473002 0,8.50947002 0,12.76419982 0,5.68889 0,2.82058 0,8.50947 0,1.41824 -0.20057,2.85074 0,4.25473 0.27565,1.9296 1.0978,3.75031 1.41824,5.67298 0.15544,0.93263 -0.25975,1.92737 0,2.83649 0.69939,2.44787 2.21904,4.6214 2.83649,7.09122 0.34398,1.3759 -0.52672,2.93792 0,4.25473 0.4966,1.2415 2.14854,1.68991 2.83649,2.83649 4.62004,7.70007 0.45302,1.81208 1.41824,5.67298 0.36259,1.45032 0.74968,2.9176 1.41825,4.25473 0.76228,1.52457 1.95952,2.79312 2.83649,4.25473 0.54387,0.90646 0.78398,1.99081 1.41824,2.83649 0.80228,1.06971 1.89099,1.89099 2.83649,2.83649 0.47275,0.47275 0.86196,1.04739 1.41824,1.41825 0.87956,0.58637 2.08901,0.67076 2.83649,1.41824 0.74748,0.74748 0.67077,2.08901 1.41825,2.83649 5.32056,5.32056 2.61464,0.8973 7.09122,4.25473 1.06971,0.80228 1.68991,2.14854 2.83649,2.83649 1.28192,0.76915 3.01085,0.58899 4.25473,1.41825 1.66885,1.11256 2.68855,3.00178 4.25474,4.25473 4.07715,3.26172 1.97006,-0.57762 7.09122,2.83649 1.66884,1.11256 2.62262,3.08894 4.25473,4.25473 3.06692,2.19066 6.45553,3.09734 9.92771,4.25473 1.41825,0.47275 2.9176,0.74968 4.25473,1.41825 1.52457,0.762279 2.68804,2.165039 4.25474,2.836489 1.79159,0.76782 3.79878,0.88276 5.67298,1.41824 1.43744,0.4107 2.81729,1.00755 4.25473,1.41825 3.74839,1.07096 7.61198,1.71629 11.34595,2.83648 2.86383,0.85915 5.60882,2.11133 8.50947,2.83649 2.78976,0.69744 5.68024,0.90384 8.50947,1.41825 2.37167,0.43121 4.69263,1.17838 7.09122,1.41824 1.92601,0.1926 14.32952,-0.23112 15.60069,0 2.50476,0.45541 4.58646,2.38108 7.09122,2.83649 2.79074,0.50741 5.67298,0 8.50947,0 2.36374,0 4.72748,0 7.09122,0 2.36374,0 4.73921,-0.2352 7.09122,0 2.39859,0.23986 4.69928,1.11925 7.09122,1.41825 1.40729,0.17591 2.85579,-0.23316 4.25473,0 1.47463,0.24577 2.77132,1.23281 4.25474,1.41824 3.75278,0.4691 7.56397,0 11.34595,0 6.14573,0 12.29145,0 18.43718,0 4.25473,0 8.50947,0 12.7642,0 1.41824,0 2.85579,0.23316 4.25473,0 1.47462,-0.24577 2.76892,-1.25315 4.25474,-1.41824 2.81914,-0.31324 5.68462,0.2568 8.50946,0 2.40066,-0.21825 4.69264,-1.17839 7.09123,-1.41825 3.29281,-0.32928 6.61847,0 9.92771,0 1.41824,0 2.86403,0.27814 4.25473,0 1.03657,-0.20731 1.81095,-1.16186 2.83649,-1.41824 0.91726,-0.22932 1.99081,0.42284 2.83649,0 0.42284,-0.21142 0,-0.9455 0,-1.41825 0.94549,0 1.89099,0 2.83649,0"
       id="path3429"
       inkscape:connector-curvature="0" />
    <text
       xml:space="preserve"
       style="font-style:normal;font-weight:normal;font-size:40px;line-height:125%;font-family:sans-serif;letter-spacing:0px;word-spacing:0px;fill:#000000;fill-opacity:1;stroke:none;stroke-width:1px;stroke-linecap:butt;stroke-linejoin:miter;stroke-opacity:1"
       x="141.82445"
       y="17.673521"
       id="text3431"
       sodipodi:linespacing="125%"><tspan
         sodipodi:role="line"
         id="tspan3433"
         x="141.82445"
         y="17.673521">1</tspan></text>
    <text
       xml:space="preserve"
       style="font-style:normal;font-weight:normal;font-size:56.50859451px;line-height:125%;font-family:sans-serif;letter-spacing:0px;word-spacing:0px;fill:#000000;fill-opacity:1;stroke:none;stroke-width:1px;stroke-linecap:butt;stroke-linejoin:miter;stroke-opacity:1"
       x="246.9057"
       y="11.662218"
       id="text3435"
       sodipodi:linespacing="125%"
       transform="scale(1.4127148,0.70785695)"><tspan
         sodipodi:role="line"
         id="tspan3437"
         x="246.9057"
         y="11.662218">2</tspan></text>
    <text
       xml:space="preserve"
       style="font-style:normal;font-weight:normal;font-size:40px;line-height:125%;font-family:sans-serif;letter-spacing:0px;word-spacing:0px;fill:#000000;fill-opacity:1;stroke:none;stroke-width:1px;stroke-linecap:butt;stroke-linejoin:miter;stroke-opacity:1"
       x="557.37006"
       y="9.3464956"
       id="text3458"
       sodipodi:linespacing="125%"><tspan
         sodipodi:role="line"
         id="tspan3460"
         x="557.37006"
         y="9.3464956">3</tspan></text>
    <text
       xml:space="preserve"
       style="font-style:normal;font-weight:normal;font-size:40px;line-height:125%;font-family:sans-serif;letter-spacing:0px;word-spacing:0px;fill:#000000;fill-opacity:1;stroke:none;stroke-width:1px;stroke-linecap:butt;stroke-linejoin:miter;stroke-opacity:1"
       x="73.748726"
       y="122.6236"
       id="text3462"
       sodipodi:linespacing="125%"><tspan
         sodipodi:role="line"
         id="tspan3464"
         x="73.748726"
         y="122.6236"
         style="font-size:25px">simple illustration that complements logo and </tspan><tspan
         sodipodi:role="line"
         x="73.748726"
         y="153.8736"
         style="font-size:25px"
         id="tspan4666">rollercoaster theme/alternate to circles</tspan></text>
    <text
       xml:space="preserve"
       style="font-style:normal;font-weight:normal;font-size:40px;line-height:125%;font-family:sans-serif;letter-spacing:0px;word-spacing:0px;fill:#000000;fill-opacity:1;stroke:none;stroke-width:1px;stroke-linecap:butt;stroke-linejoin:miter;stroke-opacity:1"
       x="40.197506"
       y="195.02637"
       id="text3466"
       sodipodi:linespacing="125%"><tspan
         sodipodi:role="line"
         id="tspan3468"
         x="40.197506"
         y="195.02637"
         style="font-style:normal;font-variant:normal;font-weight:bold;font-stretch:normal;font-size:17.5px;font-family:sans-serif;-inkscape-font-specification:'sans-serif Bold'"> 1. Brand package</tspan><tspan
         sodipodi:role="line"
         x="40.197506"
         y="216.90137"
         id="tspan3470" /><tspan
         sodipodi:role="line"
         x="40.197506"
         y="238.77637"
         id="tspan3472"
         style="font-size:17.5px">*Logo and </tspan><tspan
         sodipodi:role="line"
         x="40.197506"
         y="260.65137"
         style="font-size:17.5px"
         id="tspan3515">brand style</tspan><tspan
         sodipodi:role="line"
         x="40.197506"
         y="282.52637"
         id="tspan3474"
         style="font-size:17.5px">Brand </tspan><tspan
         sodipodi:role="line"
         x="40.197506"
         y="304.40137"
         id="tspan3476"
         style="font-size:17.5px">pieces​ </tspan><tspan
         sodipodi:role="line"
         x="40.197506"
         y="326.27637"
         style="font-size:17.5px"
         id="tspan3517">(or brand system)​</tspan><tspan
         sodipodi:role="line"
         x="40.197506"
         y="348.15134"
         id="tspan3478"
         style="font-size:17.5px">Website</tspan><tspan
         sodipodi:role="line"
         x="40.197506"
         y="370.02634"
         style="font-style:normal;font-variant:normal;font-weight:bold;font-stretch:normal;font-size:17.5px;font-family:sans-serif;-inkscape-font-specification:'sans-serif Bold'"
         id="tspan4668">priced from ???</tspan></text>
    <text
       xml:space="preserve"
       style="font-style:normal;font-weight:normal;font-size:40px;line-height:125%;font-family:sans-serif;letter-spacing:0px;word-spacing:0px;fill:#000000;fill-opacity:1;stroke:none;stroke-width:1px;stroke-linecap:butt;stroke-linejoin:miter;stroke-opacity:1"
       x="273.31836"
       y="195.90009"
       id="text3466-9"
       sodipodi:linespacing="125%"><tspan
         sodipodi:role="line"
         id="tspan3468-9"
         x="273.31836"
         y="195.90009"
         style="font-style:normal;font-variant:normal;font-weight:bold;font-stretch:normal;font-size:17.5px;font-family:sans-serif;-inkscape-font-specification:'sans-serif Bold'"> 2. ​Full Website</tspan><tspan
         sodipodi:role="line"
         x="273.31836"
         y="217.77509"
         id="tspan3470-5" /><tspan
         sodipodi:role="line"
         x="273.31836"
         y="239.65009"
         style="font-size:17.5px"
         id="tspan4600">Discovery, analysis, </tspan><tspan
         sodipodi:role="line"
         x="273.31836"
         y="261.52509"
         style="font-size:17.5px"
         id="tspan4612">research</tspan><tspan
         sodipodi:role="line"
         x="273.31836"
         y="283.40009"
         style="font-size:17.5px"
         id="tspan4602">Content structure and </tspan><tspan
         sodipodi:role="line"
         x="273.31836"
         y="305.27509"
         style="font-size:17.5px"
         id="tspan4614">strategy (information </tspan><tspan
         sodipodi:role="line"
         x="273.31836"
         y="327.15009"
         style="font-size:17.5px"
         id="tspan4616">architecture)</tspan><tspan
         sodipodi:role="line"
         x="273.31836"
         y="349.02512"
         style="font-size:17.5px"
         id="tspan4604">User Experience Design </tspan><tspan
         sodipodi:role="line"
         x="273.31836"
         y="370.90012"
         style="font-size:17.5px"
         id="tspan4618">(sitemap, user-flow, </tspan><tspan
         sodipodi:role="line"
         x="273.31836"
         y="392.77512"
         style="font-size:17.5px"
         id="tspan4620">wireframes)</tspan><tspan
         sodipodi:role="line"
         x="273.31836"
         y="414.65012"
         style="font-size:17.5px"
         id="tspan4606">Visual design</tspan><tspan
         sodipodi:role="line"
         x="273.31836"
         y="436.52512"
         style="font-size:17.5px"
         id="tspan4608">Development</tspan><tspan
         sodipodi:role="line"
         x="273.31836"
         y="458.40012"
         style="font-size:17.5px"
         id="tspan4610">Testing and deployment</tspan><tspan
         sodipodi:role="line"
         x="273.31836"
         y="480.27512"
         style="font-style:normal;font-variant:normal;font-weight:bold;font-stretch:normal;font-size:17.5px;font-family:sans-serif;-inkscape-font-specification:'sans-serif Bold'"
         id="tspan4672">priced from ???</tspan><tspan
         sodipodi:role="line"
         x="273.31836"
         y="502.15012"
         style="font-size:17.5px"
         id="tspan4670" /></text>
    <text
       xml:space="preserve"
       style="font-style:normal;font-weight:normal;font-size:40px;line-height:125%;font-family:sans-serif;letter-spacing:0px;word-spacing:0px;fill:#000000;fill-opacity:1;stroke:none;stroke-width:1px;stroke-linecap:butt;stroke-linejoin:miter;stroke-opacity:1"
       x="505.91049"
       y="197.31836"
       id="text3466-9-7"
       sodipodi:linespacing="125%"><tspan
         sodipodi:role="line"
         id="tspan3468-9-9"
         x="505.91049"
         y="197.31836"
         style="font-style:normal;font-variant:normal;font-weight:bold;font-stretch:normal;font-size:17.5px;font-family:sans-serif;-inkscape-font-specification:'sans-serif Bold'"> 3. Brand collateral</tspan><tspan
         sodipodi:role="line"
         x="505.91049"
         y="219.19336"
         style="font-style:normal;font-variant:normal;font-weight:normal;font-stretch:normal;font-size:17.5px;font-family:sans-serif;-inkscape-font-specification:sans-serif"
         id="tspan4638">landing pages</tspan><tspan
         sodipodi:role="line"
         x="505.91049"
         y="241.06836"
         style="font-style:normal;font-variant:normal;font-weight:normal;font-stretch:normal;font-size:17.5px;font-family:sans-serif;-inkscape-font-specification:sans-serif"
         id="tspan4640">digital banners</tspan><tspan
         sodipodi:role="line"
         x="505.91049"
         y="262.94336"
         style="font-style:normal;font-variant:normal;font-weight:normal;font-stretch:normal;font-size:17.5px;font-family:sans-serif;-inkscape-font-specification:sans-serif"
         id="tspan4642">flyers</tspan><tspan
         sodipodi:role="line"
         x="505.91049"
         y="284.81836"
         style="font-style:normal;font-variant:normal;font-weight:normal;font-stretch:normal;font-size:17.5px;font-family:sans-serif;-inkscape-font-specification:sans-serif"
         id="tspan4644">brochures</tspan><tspan
         sodipodi:role="line"
         x="505.91049"
         y="306.69336"
         style="font-style:normal;font-variant:normal;font-weight:normal;font-stretch:normal;font-size:17.5px;font-family:sans-serif;-inkscape-font-specification:sans-serif"
         id="tspan4646">magazines</tspan><tspan
         sodipodi:role="line"
         x="505.91049"
         y="328.56836"
         style="font-style:normal;font-variant:normal;font-weight:normal;font-stretch:normal;font-size:17.5px;font-family:sans-serif;-inkscape-font-specification:sans-serif"
         id="tspan4648">stationery</tspan><tspan
         sodipodi:role="line"
         x="505.91049"
         y="350.44333"
         style="font-style:normal;font-variant:normal;font-weight:normal;font-stretch:normal;font-size:17.5px;font-family:sans-serif;-inkscape-font-specification:sans-serif"
         id="tspan4650">social media visuals</tspan><tspan
         sodipodi:role="line"
         x="505.91049"
         y="372.31833"
         style="font-style:normal;font-variant:normal;font-weight:normal;font-stretch:normal;font-size:17.5px;font-family:sans-serif;-inkscape-font-specification:sans-serif"
         id="tspan4652">presentations</tspan><tspan
         sodipodi:role="line"
         x="505.91049"
         y="394.19333"
         style="font-style:normal;font-variant:normal;font-weight:normal;font-stretch:normal;font-size:17.5px;font-family:sans-serif;-inkscape-font-specification:sans-serif"
         id="tspan4654">e-books</tspan><tspan
         sodipodi:role="line"
         x="505.91049"
         y="416.06833"
         style="font-style:normal;font-variant:normal;font-weight:normal;font-stretch:normal;font-size:17.5px;font-family:sans-serif;-inkscape-font-specification:sans-serif"
         id="tspan4656">​etc, ect,.,.</tspan><tspan
         sodipodi:role="line"
         x="505.91049"
         y="437.94333"
         style="font-style:normal;font-variant:normal;font-weight:bold;font-stretch:normal;font-size:17.5px;font-family:sans-serif;-inkscape-font-specification:'sans-serif Bold'"
         id="tspan4674">priced from ???</tspan><tspan
         sodipodi:role="line"
         x="505.91049"
         y="459.81833"
         id="tspan3470-5-6"
         style="font-style:normal;font-variant:normal;font-weight:normal;font-stretch:normal;font-family:sans-serif;-inkscape-font-specification:sans-serif" /><tspan
         sodipodi:role="line"
         x="505.91049"
         y="481.69333"
         style="font-style:normal;font-variant:normal;font-weight:normal;font-stretch:normal;font-size:17.5px;font-family:sans-serif;-inkscape-font-specification:sans-serif"
         id="tspan3517-6-2">​</tspan><tspan
         sodipodi:role="line"
         x="505.91049"
         y="503.56833"
         id="tspan3478-0-0"
         style="font-size:17.5px" /></text>
    <rect
       style="fill:#00ffff;fill-opacity:0.25490196"
       id="rect3597"
       width="848.11017"
       height="235.42857"
       x="-24.110165"
       y="-328.81534"
       ry="3.9453102e-05" />
    <text
       xml:space="preserve"
       style="font-style:normal;font-weight:normal;font-size:40px;line-height:125%;font-family:sans-serif;letter-spacing:0px;word-spacing:0px;fill:#ffffff;fill-opacity:1;stroke:none;stroke-width:1px;stroke-linecap:butt;stroke-linejoin:miter;stroke-opacity:1"
       x="87.588638"
       y="-212.88768"
       id="text3346"
       sodipodi:linespacing="125%"><tspan
         sodipodi:role="line"
         x="87.588638"
         y="-212.88768"
         id="tspan3350"
         style="font-size:22.5px;fill:#4d4d4d">introductory paragraph  selling services introductory </tspan><tspan
         sodipodi:role="line"
         x="87.588638"
         y="-184.76268"
         style="font-size:22.5px;fill:#4d4d4d"
         id="tspan3354">paragraph selling services introductory paragraph </tspan><tspan
         sodipodi:role="line"
         x="87.588638"
         y="-156.63768"
         style="font-size:22.5px;fill:#4d4d4d"
         id="tspan3356">selling services introductory paragraph </tspan><tspan
         sodipodi:role="line"
         x="87.588638"
         y="-128.51268"
         style="font-size:22.5px;fill:#4d4d4d"
         id="tspan3364">  selling services-why you're the best choice </tspan></text>
    <text
       xml:space="preserve"
       style="font-style:normal;font-weight:normal;font-size:40px;line-height:125%;font-family:sans-serif;letter-spacing:0px;word-spacing:0px;fill:#ffffff;fill-opacity:1;stroke:none;stroke-width:1px;stroke-linecap:butt;stroke-linejoin:miter;stroke-opacity:1"
       x="81.915665"
       y="-253.79646"
       id="text3366"
       sodipodi:linespacing="125%"><tspan
         sodipodi:role="line"
         id="tspan3368"
         x="81.915665"
         y="-253.79646"
         style="fill:#1a1a1a">design packages</tspan></text>
    <rect
       style="fill:#00bec2;fill-opacity:0.71764706"
       id="rect4432"
       width="124.80551"
       height="42.547333"
       x="44.208908"
       y="489.0311"
       ry="3.9453102e-05" />
    <rect
       style="fill:#00bec2;fill-opacity:0.71764706"
       id="rect4432-4"
       width="124.80551"
       height="42.547333"
       x="284.23633"
       y="495.63571"
       ry="3.9453102e-05" />
    <rect
       style="fill:#00bec2;fill-opacity:0.71764706"
       id="rect4432-4-3"
       width="124.80551"
       height="42.547333"
       x="533.46149"
       y="493.04251"
       ry="3.9453102e-05" />
    <rect
       style="fill:#00bec2;fill-opacity:0.71764706"
       id="rect3597-5"
       width="848.11017"
       height="97.128868"
       x="-28.36491"
       y="793.60229"
       ry="1.627685e-05" />
    <text
       xml:space="preserve"
       style="font-style:normal;font-weight:normal;font-size:40px;line-height:125%;font-family:sans-serif;letter-spacing:0px;word-spacing:0px;fill:#ffffff;fill-opacity:1;stroke:none;stroke-width:1px;stroke-linecap:butt;stroke-linejoin:miter;stroke-opacity:1"
       x="244.97475"
       y="863.47382"
       id="text3366-0"
       sodipodi:linespacing="125%"><tspan
         sodipodi:role="line"
         id="tspan3368-0"
         x="244.97475"
         y="863.47382">contact us!</tspan></text>
    <text
       xml:space="preserve"
       style="font-style:normal;font-weight:normal;font-size:40px;line-height:125%;font-family:sans-serif;letter-spacing:0px;word-spacing:0px;fill:#000000;fill-opacity:1;stroke:none;stroke-width:1px;stroke-linecap:butt;stroke-linejoin:miter;stroke-opacity:1"
       x="68.319038"
       y="513.97205"
       id="text4497"
       sodipodi:linespacing="125%"><tspan
         sodipodi:role="line"
         id="tspan4499"
         x="68.319038"
         y="513.97205"
         style="font-style:normal;font-variant:normal;font-weight:bold;font-stretch:normal;font-size:12.5px;font-family:sans-serif;-inkscape-font-specification:'sans-serif Bold';fill:#ffffff">EXAMPLES</tspan></text>
    <text
       xml:space="preserve"
       style="font-style:normal;font-weight:normal;font-size:40px;line-height:125%;font-family:sans-serif;letter-spacing:0px;word-spacing:0px;fill:#000000;fill-opacity:1;stroke:none;stroke-width:1px;stroke-linecap:butt;stroke-linejoin:miter;stroke-opacity:1"
       x="307.62015"
       y="518.03552"
       id="text4497-7"
       sodipodi:linespacing="125%"><tspan
         sodipodi:role="line"
         id="tspan4499-4"
         x="307.62015"
         y="518.03552"
         style="font-style:normal;font-variant:normal;font-weight:bold;font-stretch:normal;font-size:12.5px;font-family:sans-serif;-inkscape-font-specification:'sans-serif Bold';fill:#ffffff">EXAMPLES</tspan></text>
    <text
       xml:space="preserve"
       style="font-style:normal;font-weight:normal;font-size:40px;line-height:125%;font-family:sans-serif;letter-spacing:0px;word-spacing:0px;fill:#000000;fill-opacity:1;stroke:none;stroke-width:1px;stroke-linecap:butt;stroke-linejoin:miter;stroke-opacity:1"
       x="561.10004"
       y="516.02985"
       id="text4497-7-2"
       sodipodi:linespacing="125%"><tspan
         sodipodi:role="line"
         id="tspan4499-4-0"
         x="561.10004"
         y="516.02985"
         style="font-style:normal;font-variant:normal;font-weight:bold;font-stretch:normal;font-size:12.5px;font-family:sans-serif;-inkscape-font-specification:'sans-serif Bold';fill:#ffffff">EXAMPLES</tspan></text>
    <rect
       style="fill:#00ffff;fill-opacity:0.25490196"
       id="rect3336-7"
       width="744.57831"
       height="187.28459"
       x="5.895452"
       y="606.43939"
       ry="7.7760189e-05" />
    <text
       xml:space="preserve"
       style="font-style:normal;font-weight:normal;font-size:40px;line-height:125%;font-family:sans-serif;letter-spacing:0px;word-spacing:0px;fill:#ffffff;fill-opacity:1;stroke:none;stroke-width:1px;stroke-linecap:butt;stroke-linejoin:miter;stroke-opacity:1"
       x="216.12318"
       y="667.82227"
       id="text3366-4"
       sodipodi:linespacing="125%"><tspan
         sodipodi:role="line"
         id="tspan3368-2"
         x="216.12318"
         y="667.82227"
         style="fill:#333333">special promotions</tspan></text>
    <flowRoot
       xml:space="preserve"
       id="flowRoot4658"
       style="font-style:normal;font-weight:normal;font-size:40px;line-height:125%;font-family:sans-serif;letter-spacing:0px;word-spacing:0px;fill:#000000;fill-opacity:1;stroke:none;stroke-width:1px;stroke-linecap:butt;stroke-linejoin:miter;stroke-opacity:1"><flowRegion
         id="flowRegion4660"><rect
           id="rect4662"
           width="125.35628"
           height="121.34488"
           x="493.40231"
           y="718.41309" /></flowRegion><flowPara
         id="flowPara4664"></flowPara></flowRoot>    <text
       xml:space="preserve"
       style="font-style:normal;font-weight:normal;font-size:40px;line-height:125%;font-family:sans-serif;letter-spacing:0px;word-spacing:0px;fill:#ffffff;fill-opacity:1;stroke:none;stroke-width:1px;stroke-linecap:butt;stroke-linejoin:miter;stroke-opacity:1"
       x="227.75212"
       y="965.11792"
       id="text3366-4-3"
       sodipodi:linespacing="125%"><tspan
         sodipodi:role="line"
         id="tspan3368-2-8"
         x="227.75212"
         y="965.11792"
         style="fill:#333333">footer information</tspan></text>
  </g>
</svg>
